<svg width="16" height="20" viewBox="0 0 16 20" fill="none" xmlns="http://www.w3.org/2000/svg">
<path d="M13.8787 5.88281C14.385 5.39453 14.385 4.60156 13.8787 4.11328C13.3723 3.625 12.55 3.625 12.0436 4.11328L7.77798 8.23047L3.5083 4.11719C3.00193 3.62891 2.1796 3.62891 1.67323 4.11719C1.16687 4.60547 1.16687 5.39844 1.67323 5.88672L5.94291 10L1.67728 14.1172C1.17092 14.6055 1.17092 15.3984 1.67728 15.8867C2.18365 16.375 3.00599 16.375 3.51235 15.8867L7.77798 11.7695L12.0477 15.8828C12.554 16.3711 13.3764 16.3711 13.8827 15.8828C14.3891 15.3945 14.3891 14.6016 13.8827 14.1133L9.61305 10L13.8787 5.88281Z" fill="#D41818"/>
</svg>
